<?xml version="1.0" encoding="UTF-8"?>
<svg width="100px" height="100px" viewBox="0 0 100 100" version="1.1" xmlns="http://www.w3.org/2000/svg" xmlns:xlink="http://www.w3.org/1999/xlink">
    <!-- Generator: Sketch 61.2 (89653) - https://sketch.com -->
    <title>icon_v2</title>
    <desc>Created with Sketch.</desc>
    <g id="icon_v2" stroke="none" stroke-width="1" fill="none" fill-rule="evenodd">
        <g id="Narrow-Version-Copy" transform="translate(-7.000000, -5.000000)" fill="#F3760D">
            <g id="chain" transform="translate(69.045575, 63.275807) rotate(39.000000) translate(-69.045575, -63.275807) translate(45.045575, 16.275807)">
                <path d="M26.9659247,50.8207891 C28.7752494,52.3723427 29.7407285,53.8827947 29.8623617,55.3521452 C29.983995,56.8214957 29.8992311,59.0516442 29.6080699,62.0425909 C28.8693789,64.4152168 16.4951483,64.7725487 9.22418083,58.9499089 C4.37686918,55.0681491 1.38499861,49.7066136 0.248569115,42.8653024 L0.253903908,21.9811612 C1.00824366,15.4154581 6.36579864,0.902536579 24.2640298,0.954952071 C42.1622609,1.00822628 47.5749421,18.9916525 47.3323868,22.8953412 L47.3323868,33.9780208 C46.5167562,35.4006377 45.2626056,35.809017 43.569935,35.2031586 C40.5113203,31.8347487 36.1588403,30.8332129 35.0591616,28.7115102 C35.161234,23.1045636 34.0366596,14.8323673 25.2968457,13.5615745 C16.5570319,12.2907816 12.6526746,20.9127606 12.6519633,23.5097075 L12.6519633,41.4895389 C13.8602347,45.7530758 15.8070785,48.5406716 18.4924949,49.8523263 C21.1779112,51.1639811 24.0023878,51.486802 26.9659247,50.8207891 Z" id="Path-3"></path>
                <path d="M27.1449579,80.932248 C28.9542826,82.4838016 29.9197616,83.9942536 30.0413949,85.4636041 C30.1630282,86.9329546 30.0782643,89.1631031 29.7871031,92.1540498 C29.0484121,94.5266757 16.6741815,94.8840076 9.40321401,89.0613678 C4.55590237,85.1796079 1.5640318,79.8180724 0.4276023,72.9767613 L0.432937094,52.0926201 C1.18727685,45.526917 6.54483182,31.0139955 24.443063,31.066411 C42.3412941,31.1196852 47.7539753,49.1031114 47.51142,53.0068001 L47.51142,64.0894797 C46.6957894,65.5120966 45.4416388,65.9204759 43.7489682,65.3146174 C40.6903534,61.9462076 36.3378735,60.9446718 35.2381948,58.822969 C35.3402672,53.2160225 34.2156928,44.9438262 25.4758789,43.6730334 C16.7360651,42.4022405 12.8317078,51.0242194 12.8309965,53.6211664 L12.8309965,71.6009977 C14.0392678,75.8645347 15.9861117,78.6521305 18.671528,79.9637852 C21.3569444,81.27544 24.181421,81.5982609 27.1449579,80.932248 Z" id="Path-3-Copy" transform="translate(23.973379, 62.417762) scale(-1, -1) translate(-23.973379, -62.417762) "></path>
            </g>
            <g id="Narrow-Pen">
                <path d="M35.576527,-3.92408775 L35.5760453,-3.91308775 L35.7352976,-3.8912381 C39.1160791,-3.36104123 41.7728451,-0.278716097 43.7055957,5.35573731 C45.6832939,11.1212245 44.2509216,27.3227938 39.4084786,53.9604452 L44.0966202,62.5822387 L35.5720453,87.8919122 L35.576527,88.1109075 L35.5370453,87.9949122 L35.4982544,88.1113863 L35.5020453,87.8909122 L26.9754076,62.5818927 L31.6650505,53.9601441 C26.8210569,27.3226313 25.3882258,11.1211463 27.3665574,5.35568904 C29.344889,-0.40976818 32.0815455,-3.50302711 35.576527,-3.92408775 L35.4980453,-3.91308775 L35.4982544,-3.92408775 L35.5370453,-3.91908775 L35.576527,-3.92408775 Z M35.522652,62.4904678 L35.3634331,62.4966322 C33.5508499,62.5893192 32.6282486,63.534766 32.5956291,65.3329727 C32.561755,67.2003412 33.4272484,68.1742186 35.1921094,68.2546048 L35.1921094,68.2546048 L35.5370453,86.0939122 L35.8825489,68.2549803 C37.6468449,68.1745937 38.5120612,67.2007112 38.478198,65.333333 C38.4444761,63.4737477 37.4592941,62.526126 35.522652,62.4904678 Z" id="Combined-Shape" transform="translate(35.535939, 42.093649) rotate(38.000000) translate(-35.535939, -42.093649) "></path>
            </g>
        </g>
    </g>
</svg>